<svg width="13" height="12" viewBox="0 0 13 12" fill="none" xmlns="http://www.w3.org/2000/svg">
<path d="M1.25 5.24996H10.145L7.4225 1.97996C7.2952 1.8268 7.23395 1.62934 7.25223 1.43102C7.27052 1.2327 7.36684 1.04977 7.52 0.922463C7.67316 0.795159 7.87062 0.733912 8.06894 0.752197C8.26726 0.770482 8.4502 0.8668 8.5775 1.01996L12.3275 5.51996C12.3527 5.55576 12.3753 5.59336 12.395 5.63246C12.395 5.66996 12.395 5.69246 12.4475 5.72996C12.4815 5.81596 12.4993 5.9075 12.5 5.99996C12.4993 6.09243 12.4815 6.18397 12.4475 6.26996C12.4475 6.30746 12.4475 6.32996 12.395 6.36746C12.3753 6.40657 12.3527 6.44417 12.3275 6.47996L8.5775 10.98C8.50698 11.0646 8.41868 11.1327 8.31887 11.1794C8.21905 11.226 8.11018 11.2501 8 11.25C7.82476 11.2503 7.65493 11.1893 7.52 11.0775C7.44406 11.0145 7.38128 10.9372 7.33527 10.8499C7.28925 10.7627 7.2609 10.6672 7.25185 10.5689C7.24279 10.4707 7.2532 10.3717 7.28249 10.2775C7.31177 10.1833 7.35935 10.0957 7.4225 10.02L10.145 6.74996H1.25C1.05109 6.74996 0.860322 6.67095 0.719669 6.53029C0.579017 6.38964 0.5 6.19888 0.5 5.99996C0.5 5.80105 0.579017 5.61029 0.719669 5.46963C0.860322 5.32898 1.05109 5.24996 1.25 5.24996Z" fill="white"/>
</svg>
