<svg width="31" height="29" viewBox="0 0 31 29" fill="none" xmlns="http://www.w3.org/2000/svg">
<path fill-rule="evenodd" clip-rule="evenodd" d="M27.7216 3.875L7.00271 3.875L5.23245 0.701895C5.03375 0.34573 4.65784 0.125 4.25 0.125L2 0.125C1.37868 0.125 0.875 0.62868 0.875 1.25C0.875 1.87132 1.37868 2.375 2 2.375H3.5894L5.33644 5.50648L9.36555 14.4213L9.36968 14.4304L9.72456 15.2156L5.6793 19.5306C5.38843 19.8408 5.29738 20.2886 5.44398 20.6878C5.59057 21.087 5.94976 21.3694 6.37229 21.4177L10.0595 21.8391C14.6715 22.3662 19.3286 22.3662 23.9406 21.8391L27.6278 21.4177C28.2451 21.3472 28.6883 20.7896 28.6178 20.1723C28.5472 19.555 27.9896 19.1117 27.3723 19.1823L23.6851 19.6037C19.2428 20.1114 14.7572 20.1114 10.315 19.6037L8.85169 19.4364L11.8208 16.2694C11.8495 16.2388 11.8761 16.207 11.9008 16.1742L13.03 16.3211C14.6124 16.527 16.2119 16.5674 17.8027 16.4415C21.5129 16.1481 24.9515 14.3826 27.3522 11.5386L28.2193 10.5114C28.2484 10.4769 28.2754 10.4407 28.3002 10.4029L29.9163 7.94014C31.0618 6.19449 29.8095 3.875 27.7216 3.875ZM11.9844 13.9161C11.7363 13.8838 11.5223 13.7262 11.4179 13.4991L11.4159 13.4947L8.08511 6.125L27.7216 6.125C28.0199 6.125 28.1988 6.45636 28.0351 6.70573L26.4562 9.11185L25.6329 10.0873C23.6198 12.4721 20.7364 13.9525 17.6253 14.1985C16.1904 14.312 14.7476 14.2756 13.3203 14.0899L11.9844 13.9161Z" fill="white"/>
<path d="M8.75 23.75C7.50736 23.75 6.5 24.7574 6.5 26C6.5 27.2426 7.50736 28.25 8.75 28.25C9.99264 28.25 11 27.2426 11 26C11 24.7574 9.99264 23.75 8.75 23.75Z" fill="white"/>
<path d="M23 26C23 24.7574 24.0074 23.75 25.25 23.75C26.4926 23.75 27.5 24.7574 27.5 26C27.5 27.2426 26.4926 28.25 25.25 28.25C24.0074 28.25 23 27.2426 23 26Z" fill="white"/>
</svg>
