<svg width="16" height="16" viewBox="0 0 16 16" fill="none" xmlns="http://www.w3.org/2000/svg">
<path fill-rule="evenodd" clip-rule="evenodd" d="M14.8222 14.8085C15.2207 14.4099 15.2207 13.7637 14.8222 13.3651L2.57481 1.11779C2.17624 0.719213 1.53002 0.719213 1.13145 1.11779C0.732876 1.51636 0.732876 2.16258 1.13145 2.56115L13.3788 14.8085C13.7774 15.2071 14.4236 15.2071 14.8222 14.8085Z" fill="#A4A4A4"/>
<path fill-rule="evenodd" clip-rule="evenodd" d="M1.13145 14.8085C1.53002 15.2071 2.17624 15.2071 2.57481 14.8085L14.8222 2.56115C15.2207 2.16258 15.2207 1.51636 14.8222 1.11779C14.4236 0.719213 13.7774 0.719213 13.3788 1.11779L1.13145 13.3651C0.732876 13.7637 0.732876 14.4099 1.13145 14.8085Z" fill="#A4A4A4"/>
</svg>
