<?xml version="1.0" encoding="UTF-8"?>
<!DOCTYPE svg PUBLIC "-//W3C//DTD SVG 1.1//EN" "http://www.w3.org/Graphics/SVG/1.1/DTD/svg11.dtd">
<!-- Creator: CorelDRAW -->
<svg xmlns="http://www.w3.org/2000/svg" xml:space="preserve" width="11.4848mm" height="11.3166mm" version="1.1" style="shape-rendering:geometricPrecision; text-rendering:geometricPrecision; image-rendering:optimizeQuality; fill-rule:evenodd; clip-rule:evenodd"
viewBox="0 0 326.99 322.2"
 xmlns:xlink="http://www.w3.org/1999/xlink"
 xmlns:xodm="http://www.corel.com/coreldraw/odm/2003">
 <defs>
  <style type="text/css">
   <![CDATA[
    .fil0 {fill:#7C7C7C}
   ]]>
  </style>
 </defs>
 <g id="Layer_x0020_1">
  <metadata id="CorelCorpID_0Corel-Layer"/>
  <path class="fil0" d="M10.99 124.57c-20.46,-18.66 -10.76,-52.57 16,-58.8l280.87 -65.36c5.39,-1.25 11.04,0.44 14.85,4.46 3.81,4.01 5.21,9.75 3.67,15.06l-79.97 277.07c-7.62,26.4 -41.99,34.31 -59.55,12.9 -2.11,-2.57 -3.37,-5.19 -4.09,-6.84l-51.09 -116.9 -114.06 -57.14c-1.61,-0.81 -4.16,-2.2 -6.62,-4.44zm151.39 53.94l48.91 111.93c0.53,0.44 1.31,0.69 2.43,0.45 1.32,-0.28 2.29,-1.11 2.7,-2.55l64.05 -221.9 -118.1 112.07zm96.63 -134.7l-118.1 112.08 -109.21 -54.71c-0.41,-0.55 -0.62,-1.35 -0.32,-2.45 0.36,-1.3 1.23,-2.23 2.68,-2.57l224.96 -52.35z"/>
 </g>
</svg>
