<svg width="16" height="23" viewBox="0 0 16 23" fill="none" xmlns="http://www.w3.org/2000/svg">
<path fill-rule="evenodd" clip-rule="evenodd" d="M5.02399 1.29175C5.02399 0.877534 5.35978 0.541748 5.77399 0.541748L10.4962 0.541748C10.9104 0.541748 11.2462 0.877534 11.2462 1.29175C11.2462 1.70596 10.9104 2.04175 10.4962 2.04175L5.77399 2.04175C5.35978 2.04175 5.02399 1.70596 5.02399 1.29175ZM0.166504 4.20841C0.166504 3.7942 0.50229 3.45841 0.916504 3.45841L15.0832 3.45841C15.4974 3.45841 15.8332 3.7942 15.8332 4.20841C15.8332 4.62263 15.4974 4.95841 15.0832 4.95841L0.916504 4.95841C0.50229 4.95841 0.166504 4.62263 0.166504 4.20841ZM0.166504 8.34036C0.166504 7.27561 1.0105 6.37508 2.09706 6.37508L13.9026 6.37508C14.9892 6.37508 15.8332 7.27561 15.8332 8.34036L15.8332 18.0626C15.8332 20.4697 13.9321 22.4584 11.5415 22.4584H4.45817C2.0676 22.4584 0.166504 20.4697 0.166504 18.0626L0.166504 8.34036ZM2.09706 7.87508C1.87962 7.87508 1.6665 8.06275 1.6665 8.34036L1.6665 18.0626C1.6665 19.6825 2.93672 20.9584 4.45817 20.9584H11.5415C13.063 20.9584 14.3332 19.6825 14.3332 18.0626L14.3332 8.34036C14.3332 8.06275 14.1201 7.87508 13.9026 7.87508L2.09706 7.87508ZM5.63873 11.2362C6.05294 11.2362 6.38873 11.572 6.38873 11.9862L6.38873 16.8473C6.38873 17.2615 6.05294 17.5973 5.63873 17.5973C5.22451 17.5973 4.88873 17.2615 4.88873 16.8473L4.88873 11.9862C4.88873 11.572 5.22451 11.2362 5.63873 11.2362ZM10.3609 11.2362C10.7752 11.2362 11.1109 11.572 11.1109 11.9862L11.1109 16.8473C11.1109 17.2615 10.7752 17.5973 10.3609 17.5973C9.94674 17.5973 9.61095 17.2615 9.61095 16.8473L9.61095 11.9862C9.61095 11.572 9.94674 11.2362 10.3609 11.2362Z" fill="white"/>
</svg>
