<svg width="36" height="48" viewBox="0 0 36 48" fill="none" xmlns="http://www.w3.org/2000/svg">
<path fill-rule="evenodd" clip-rule="evenodd" d="M18.0002 5.07052C15.83 5.07052 14.0708 6.8298 14.0708 8.99998C14.0708 11.1702 15.83 12.9294 18.0002 12.9294C20.1704 12.9294 21.9297 11.1702 21.9297 8.99998C21.9297 6.8298 20.1704 5.07052 18.0002 5.07052ZM9.92969 8.99998C9.92969 4.54275 13.543 0.929443 18.0002 0.929443C22.4575 0.929443 26.0708 4.54275 26.0708 8.99998C26.0708 13.4572 22.4575 17.0705 18.0002 17.0705C13.543 17.0705 9.92969 13.4572 9.92969 8.99998ZM8.58076 28.7716C6.24815 30.4044 5.07052 32.4616 5.07052 34.5C5.07052 36.5384 6.24815 38.5955 8.58076 40.2284C10.9068 41.8566 14.2306 42.9294 18 42.9294C21.7694 42.9294 25.0931 41.8566 27.4192 40.2284C29.7518 38.5955 30.9294 36.5384 30.9294 34.5C30.9294 32.4616 29.7518 30.4044 27.4192 28.7716C25.0931 27.1434 21.7694 26.0705 18 26.0705C14.2306 26.0705 10.9068 27.1434 8.58076 28.7716ZM6.20601 25.3791C9.30886 23.2071 13.4851 21.9294 18 21.9294C22.5148 21.9294 26.6911 23.2071 29.794 25.3791C32.8903 27.5465 35.0705 30.7394 35.0705 34.5C35.0705 38.2606 32.8903 41.4534 29.794 43.6209C26.6911 45.7929 22.5148 47.0705 18 47.0705C13.4851 47.0705 9.30886 45.7929 6.20601 43.6209C3.10968 41.4534 0.929443 38.2606 0.929443 34.5C0.929443 30.7394 3.10968 27.5465 6.20601 25.3791Z" fill="#DCBB45"/>
</svg>
