<svg width="21" height="23" viewBox="0 0 21 23" fill="none" xmlns="http://www.w3.org/2000/svg">
<path fill-rule="evenodd" clip-rule="evenodd" d="M12.7084 1.55233C13.5854 0.565057 15.1489 0.151361 16.2427 0.98908L16.2506 0.995169L19.6959 3.70759C20.8379 4.58662 20.6674 6.17858 19.7888 7.17426L8.24925 20.7932L8.24343 20.7998C7.98522 21.0905 7.6366 21.3033 7.25269 21.3893L2.62746 22.426C2.03953 22.5578 1.4945 22.27 1.16966 21.9964C0.849882 21.727 0.472769 21.2426 0.501552 20.6549L0.717715 16.2414C0.737358 15.8404 0.908555 15.4674 1.16273 15.1782L12.7025 1.55889L12.7084 1.55233ZM13.8352 2.54252L11.6465 5.1256C11.8613 5.83154 12.3104 6.73295 13.046 7.44179C13.8368 8.2038 14.9766 8.76533 16.6115 8.60372L18.6553 6.19171L18.6611 6.18515C19.1739 5.60789 19.0127 5.07379 18.7794 4.89509L18.7715 4.889L15.3276 2.17763C15.0377 1.95935 14.3537 1.96407 13.8352 2.54252ZM15.3496 10.093C13.9409 9.93658 12.8336 9.32023 12.0052 8.5219C11.3412 7.88206 10.8636 7.13404 10.5416 6.42959L2.29652 16.1604L2.29069 16.167C2.23088 16.2343 2.21697 16.2933 2.21592 16.3148L2.00162 20.6901C2.00343 20.6937 2.00572 20.6981 2.00858 20.7031C2.03121 20.7429 2.07415 20.797 2.13601 20.8491C2.19782 20.9012 2.25834 20.9342 2.30218 20.9498C2.31189 20.9532 2.31934 20.9554 2.32463 20.9567L6.92462 19.9256C6.98561 19.912 7.05893 19.8724 7.11761 19.8085L15.3496 10.093ZM2.33464 20.9586C2.33465 20.9586 2.33429 20.9585 2.33357 20.9584ZM1.99546 20.6757C1.99549 20.6757 1.99572 20.6763 1.99608 20.6776Z" fill="white"/>
</svg>
