<svg width="44" height="44" viewBox="0 0 44 44" fill="none" xmlns="http://www.w3.org/2000/svg">
<path fill-rule="evenodd" clip-rule="evenodd" d="M2.00668 17.3678C-0.709523 14.8905 0.578059 10.3892 4.13041 9.56258L41.4149 0.886229C42.1303 0.719738 42.8805 0.944783 43.3861 1.47763C43.8917 2.01048 44.0772 2.77134 43.8735 3.4771L33.2573 40.2563C32.2458 43.7605 27.6833 44.8107 25.3516 41.9685C25.0711 41.6266 24.905 41.2794 24.8089 41.0596L18.0272 25.542L2.88595 17.9573C2.6714 17.8499 2.33345 17.6658 2.00668 17.3678ZM22.1034 24.5283L28.5967 39.3859C28.6671 39.4443 28.7712 39.478 28.9201 39.4456C29.0947 39.4077 29.2237 39.2981 29.2786 39.1078L37.7814 9.65068L22.1034 24.5283ZM34.9309 6.64683L19.2529 21.5244L4.75562 14.2623C4.70099 14.1889 4.67277 14.0832 4.71289 13.9362C4.7599 13.7639 4.87615 13.6408 5.06899 13.5959L34.9309 6.64683Z" fill="#7C7C7C"/>
</svg>
