<svg width="38" height="64" viewBox="0 0 38 64" fill="none" xmlns="http://www.w3.org/2000/svg">
<path fill-rule="evenodd" clip-rule="evenodd" d="M13.9538 5.26265C17.1413 2.07514 21.4645 0.284424 25.9723 0.284424L34.7134 0.284424C36.0544 0.284424 37.1415 1.37152 37.1415 2.71253V14.3674C37.1415 15.7084 36.0544 16.7955 34.7134 16.7955H25.9723C25.8435 16.7955 25.72 16.8467 25.6289 16.9378C25.5378 17.0288 25.4866 17.1524 25.4866 17.2811V23.5942H34.7134C35.4611 23.5942 36.1671 23.9387 36.6273 24.528C37.0874 25.1174 37.2504 25.8858 37.069 26.6112L34.1553 38.2661C33.8851 39.347 32.9139 40.1053 31.7997 40.1053H25.4866V60.987C25.4866 62.328 24.3995 63.4151 23.0585 63.4151H11.4036C10.0626 63.4151 8.97555 62.328 8.97555 60.987V40.1053H2.66248C1.32147 40.1053 0.234375 39.0182 0.234375 37.6772L0.234375 26.0223C0.234375 24.6813 1.32147 23.5942 2.66248 23.5942H8.97555V17.2811C8.97555 12.7733 10.7663 8.45015 13.9538 5.26265ZM25.9723 5.14063C22.7524 5.14063 19.6644 6.41972 17.3876 8.6965C15.1108 10.9733 13.8318 14.0613 13.8318 17.2811V26.0223C13.8318 27.3633 12.7447 28.4504 11.4036 28.4504H5.09058V35.2491H11.4036C12.7447 35.2491 13.8318 36.3362 13.8318 37.6772V58.5589H20.6304V37.6772C20.6304 36.3362 21.7175 35.2491 23.0585 35.2491H29.9039L31.6036 28.4504H23.0585C21.7175 28.4504 20.6304 27.3633 20.6304 26.0223V17.2811C20.6304 15.8644 21.1932 14.5057 22.195 13.5039C23.1968 12.5021 24.5555 11.9393 25.9723 11.9393L32.2853 11.9393V5.14063H25.9723Z" fill="#D2D2D2"/>
</svg>
