<svg width="18" height="14" viewBox="0 0 18 14" fill="none" xmlns="http://www.w3.org/2000/svg">
<path d="M1.30075 8.1626L14.3649 8.1626L10.3664 12.3649C10.1794 12.5618 10.0894 12.8155 10.1163 13.0704C10.1431 13.3253 10.2846 13.5604 10.5096 13.724C10.7345 13.8876 11.0245 13.9663 11.3158 13.9428C11.6071 13.9193 11.8757 13.7955 12.0627 13.5987L17.5704 7.81562C17.6074 7.76962 17.6406 7.7213 17.6695 7.67104C17.6695 7.62285 17.6695 7.59393 17.7466 7.54574C17.7966 7.43523 17.8227 7.31759 17.8237 7.19876C17.8227 7.07993 17.7966 6.96229 17.7466 6.85178C17.7466 6.80359 17.7466 6.77467 17.6695 6.72648C17.6406 6.67622 17.6074 6.6279 17.5704 6.5819L12.0627 0.798857C11.9591 0.690056 11.8295 0.602558 11.6829 0.542587C11.5363 0.482616 11.3764 0.451643 11.2145 0.451873C10.9572 0.451434 10.7077 0.529866 10.5096 0.673557C10.398 0.75447 10.3058 0.853844 10.2382 0.965984C10.1707 1.07812 10.129 1.20083 10.1157 1.32707C10.1024 1.45331 10.1177 1.5806 10.1607 1.70167C10.2037 1.82273 10.2736 1.93518 10.3664 2.03257L14.3649 6.23492L1.30075 6.23492C1.0086 6.23492 0.728423 6.33647 0.521846 6.51722C0.315268 6.69798 0.199216 6.94313 0.199216 7.19876C0.199216 7.45439 0.315268 7.69954 0.521845 7.8803C0.728423 8.06105 1.0086 8.1626 1.30075 8.1626Z" fill="white"/>
</svg>
