<svg width="19" height="14" viewBox="0 0 19 14" fill="none" xmlns="http://www.w3.org/2000/svg">
<path d="M17.5039 8.1626L4.43977 8.1626L8.43833 12.3649C8.6253 12.5618 8.71526 12.8155 8.6884 13.0704C8.66155 13.3253 8.52008 13.5604 8.29513 13.724C8.07018 13.8876 7.78017 13.9663 7.48889 13.9428C7.19762 13.9193 6.92894 13.7955 6.74197 13.5987L1.23431 7.81562C1.19725 7.76962 1.16412 7.7213 1.13517 7.67104C1.13517 7.62285 1.13517 7.59393 1.05806 7.54574C1.00814 7.43523 0.981993 7.31759 0.980956 7.19876C0.981993 7.07993 1.00814 6.96229 1.05806 6.85178C1.05806 6.80359 1.05806 6.77467 1.13517 6.72648C1.16412 6.67622 1.19725 6.6279 1.23431 6.5819L6.74197 0.798857C6.84554 0.690056 6.97523 0.602558 7.12183 0.542587C7.26842 0.482616 7.42832 0.451643 7.59015 0.451873C7.84752 0.451434 8.09695 0.529866 8.29513 0.673557C8.40667 0.75447 8.49887 0.853844 8.56645 0.965984C8.63403 1.07812 8.67567 1.20083 8.68897 1.32707C8.70227 1.45331 8.68698 1.5806 8.64397 1.70167C8.60096 1.82273 8.53108 1.93518 8.43833 2.03257L4.43977 6.23492L17.5039 6.23492C17.7961 6.23492 18.0763 6.33647 18.2828 6.51722C18.4894 6.69798 18.6055 6.94313 18.6055 7.19876C18.6055 7.45439 18.4894 7.69954 18.2828 7.8803C18.0763 8.06105 17.7961 8.1626 17.5039 8.1626Z" fill="#DE821D"/>
</svg>
