<svg width="17" height="14" viewBox="0 0 17 14" fill="none" xmlns="http://www.w3.org/2000/svg">
<path fill-rule="evenodd" clip-rule="evenodd" d="M14.2694 0C15.6602 0 16.7876 1.12741 16.7876 2.51814V10.9119C16.7876 12.3026 15.6602 13.4301 14.2694 13.4301H2.51814C1.12741 13.4301 0 12.3026 0 10.9119V2.51814C0 1.12741 1.12741 0 2.51814 0H14.2694ZM15.1088 2.79345L8.94652 8.1861C8.65642 8.43994 8.23519 8.46109 7.92324 8.24956L7.84105 8.1861L1.67876 2.79429V10.9119C1.67876 11.3755 2.05456 11.7513 2.51814 11.7513H14.2694C14.733 11.7513 15.1088 11.3755 15.1088 10.9119V2.79345ZM13.833 1.67876H2.95293L8.39378 6.43907L13.833 1.67876Z" fill="#7C7C7C" fill-opacity="0.7"/>
</svg>
