<svg width="18" height="18" viewBox="0 0 18 18" fill="none" xmlns="http://www.w3.org/2000/svg">
<path fill-rule="evenodd" clip-rule="evenodd" d="M3.19515 0.632179C3.86963 -0.0431942 5.04046 -0.12555 5.73318 0.673729L5.73318 0.673734L8.38439 3.73283C8.38439 3.73284 8.3844 3.73284 8.38441 3.73285C9.00825 4.45266 8.87812 5.48833 8.26124 6.10602C8.26124 6.10602 8.26123 6.10603 8.26123 6.10603L7.48633 6.88196C8.32551 8.21645 9.44674 9.33934 10.7791 10.1798L11.5559 9.40191C11.5559 9.4019 11.5559 9.40188 11.5559 9.40187C12.1707 8.78619 13.2014 8.65376 13.9216 9.27198C13.9216 9.272 13.9217 9.27201 13.9217 9.27202L16.9942 11.9092L16.9943 11.9092C17.7993 12.6003 17.7199 13.7765 17.0433 14.4539L14.8424 16.6577L14.8424 16.6578C13.9474 17.5539 12.5759 17.8498 11.4271 17.2915L11.4271 17.2915C6.59247 14.9418 2.72854 11.0726 0.382191 6.23206C-0.174671 5.08326 0.120126 3.71128 1.0149 2.81531L1.0149 2.81531L3.19515 0.63218L3.83196 1.26815M3.19515 0.632179L3.83196 1.26815ZM7.19568 7.173L7.19569 7.173C7.19569 7.173 7.19568 7.173 7.19568 7.173ZM7.70428 4.32229L7.04623 4.8926L7.04621 4.89261L7.02416 4.91172C7.02417 4.91173 7.02417 4.91174 7.02418 4.91174L7.04623 4.89263L7.04625 4.89261L7.70428 4.32229ZM4.44138 1.93157L6.97115 4.85055L5.92205 5.90105C5.92205 5.90105 5.92205 5.90106 5.92205 5.90106C5.54451 6.27909 5.40921 6.89732 5.70963 7.41972C6.79646 9.30967 8.35312 10.8684 10.2408 11.9568C10.7639 12.2585 11.3829 12.1224 11.7607 11.7441L12.8119 10.6916L15.7437 13.2079L13.5687 15.3858C13.5687 15.3858 13.5687 15.3858 13.5687 15.3858C13.166 15.7891 12.6101 15.8651 12.2139 15.6726C7.74292 13.4996 4.17223 9.92427 2.00193 5.44693L1.19206 5.8395L2.00193 5.44693C1.80891 5.04872 1.88557 4.49076 2.28854 4.08726L4.44138 1.93157ZM2.28854 4.08726L1.65172 3.45129L2.28854 4.08726L12.7493 10.6379" fill="#7C7C7C" fill-opacity="0.7"/>
</svg>
