<svg width="62" height="62" viewBox="0 0 62 62" fill="none" xmlns="http://www.w3.org/2000/svg">
<path d="M43.7991 14.6622C43.7991 12.8742 45.2486 11.4247 47.0366 11.4247C48.8246 11.4247 50.274 12.8742 50.274 14.6622C50.274 16.4502 48.8246 17.8997 47.0366 17.8997C45.2486 17.8997 43.7991 16.4502 43.7991 14.6622Z" fill="#D2D2D2"/>
<path fill-rule="evenodd" clip-rule="evenodd" d="M30.8492 15.4716C22.3562 15.4716 15.4712 22.3565 15.4712 30.8495C15.4712 39.3426 22.3562 46.2275 30.8492 46.2275C39.3422 46.2275 46.2272 39.3426 46.2272 30.8495C46.2272 22.3565 39.3422 15.4716 30.8492 15.4716ZM20.3274 30.8495C20.3274 25.0385 25.0382 20.3278 30.8492 20.3278C36.6602 20.3278 41.371 25.0385 41.371 30.8495C41.371 36.6606 36.6602 41.3713 30.8492 41.3713C25.0382 41.3713 20.3274 36.6606 20.3274 30.8495Z" fill="#D2D2D2"/>
<path fill-rule="evenodd" clip-rule="evenodd" d="M47.8727 1.1717C36.6497 -0.082625 25.0488 -0.082625 13.8258 1.1717C7.31187 1.89974 2.05314 7.03116 1.2873 13.579C-0.0547519 25.0536 -0.054752 36.6455 1.2873 48.1201C2.05314 54.6679 7.31187 59.7994 13.8258 60.5274C25.0488 61.7817 36.6497 61.7817 47.8727 60.5274C54.3866 59.7994 59.6454 54.6679 60.4112 48.1201C61.7533 36.6455 61.7533 25.0536 60.4112 13.579C59.6454 7.03116 54.3866 1.89974 47.8727 1.1717ZM14.3652 5.99786C25.2297 4.7836 36.4688 4.7836 47.3333 5.99786C51.6395 6.47914 55.0889 9.87723 55.5879 14.1432C56.8861 25.2429 56.8861 36.4562 55.5879 47.5559C55.0889 51.8219 51.6394 55.22 47.3333 55.7012C36.4688 56.9155 25.2297 56.9155 14.3652 55.7012C10.0591 55.22 6.60957 51.8219 6.11063 47.5559C4.81241 36.4562 4.81241 25.2429 6.11063 14.1432C6.60957 9.87723 10.0591 6.47914 14.3652 5.99786Z" fill="#D2D2D2"/>
</svg>
