<svg width="16" height="20" viewBox="0 0 16 20" fill="none" xmlns="http://www.w3.org/2000/svg">
<path fill-rule="evenodd" clip-rule="evenodd" d="M3.64602 8.9421C3.64602 6.53736 5.59545 4.58793 8.00019 4.58793C10.4049 4.58793 12.3544 6.53736 12.3544 8.9421C12.3544 11.3468 10.4049 13.2963 8.00019 13.2963C5.59545 13.2963 3.64602 11.3468 3.64602 8.9421ZM8.00019 5.96293C6.35484 5.96293 5.02102 7.29675 5.02102 8.9421C5.02102 10.5874 6.35484 11.9213 8.00019 11.9213C9.64553 11.9213 10.9794 10.5874 10.9794 8.9421C10.9794 7.29675 9.64553 5.96293 8.00019 5.96293Z" fill="#A5A5A5"/>
<path fill-rule="evenodd" clip-rule="evenodd" d="M0.230852 7.89421C0.555652 3.95382 3.84846 0.921265 7.80222 0.921265H8.19816C12.1519 0.921265 15.4447 3.95382 15.7695 7.89421C15.944 10.0109 15.2902 12.1127 13.9457 13.757L9.55208 19.1303C8.75 20.1112 7.25038 20.1112 6.44829 19.1303L2.05465 13.757C0.710216 12.1128 0.0563746 10.0109 0.230852 7.89421ZM7.80222 2.29626C4.56405 2.29626 1.86722 4.77995 1.6012 8.00717C1.45599 9.76886 2.00017 11.5181 3.11911 12.8866L7.51274 18.2599C7.76467 18.568 8.2357 18.568 8.48763 18.2599L12.8813 12.8866C14.0002 11.5181 14.5444 9.76886 14.3992 8.00717C14.1332 4.77995 11.4363 2.29626 8.19816 2.29626H7.80222Z" fill="#A5A5A5"/>
</svg>
