<svg width="20" height="14" viewBox="0 0 20 14" fill="none" xmlns="http://www.w3.org/2000/svg">
<path d="M16.4163 0.125H3.58301C2.85366 0.125 2.15419 0.414731 1.63846 0.930456C1.12274 1.44618 0.833008 2.14565 0.833008 2.875V11.125C0.833008 11.8543 1.12274 12.5538 1.63846 13.0695C2.15419 13.5853 2.85366 13.875 3.58301 13.875H16.4163C17.1457 13.875 17.8452 13.5853 18.3609 13.0695C18.8766 12.5538 19.1663 11.8543 19.1663 11.125V2.875C19.1663 2.14565 18.8766 1.44618 18.3609 0.930456C17.8452 0.414731 17.1457 0.125 16.4163 0.125ZM17.333 11.125C17.333 11.3681 17.2364 11.6013 17.0645 11.7732C16.8926 11.9451 16.6595 12.0417 16.4163 12.0417H3.58301C3.33989 12.0417 3.10674 11.9451 2.93483 11.7732C2.76292 11.6013 2.66634 11.3681 2.66634 11.125V2.875C2.66634 2.63188 2.76292 2.39873 2.93483 2.22682C3.10674 2.05491 3.33989 1.95833 3.58301 1.95833H16.4163C16.6595 1.95833 16.8926 2.05491 17.0645 2.22682C17.2364 2.39873 17.333 2.63188 17.333 2.875V11.125ZM13.6663 5.625C13.179 5.62841 12.7013 5.76128 12.2822 6.01C11.8646 5.76225 11.389 5.62945 10.9035 5.62511C10.418 5.62077 9.93999 5.74503 9.51809 5.98527C9.09619 6.22551 8.74541 6.57317 8.50141 6.9929C8.2574 7.41264 8.12887 7.88949 8.12887 8.375C8.12887 8.86051 8.2574 9.33736 8.50141 9.7571C8.74541 10.1768 9.09619 10.5245 9.51809 10.7647C9.93999 11.005 10.418 11.1292 10.9035 11.1249C11.389 11.1205 11.8646 10.9878 12.2822 10.74C12.6468 10.9563 13.0566 11.0854 13.4794 11.1172C13.9022 11.149 14.3266 11.0825 14.7195 10.9231C15.1124 10.7637 15.463 10.5155 15.7441 10.1981C16.0252 9.88068 16.2291 9.50255 16.3399 9.09327C16.4506 8.68399 16.4653 8.25465 16.3826 7.83879C16.2999 7.42292 16.1222 7.03181 15.8634 6.696C15.6045 6.36019 15.2715 6.08879 14.8904 5.903C14.5093 5.71721 14.0903 5.62207 13.6663 5.625V5.625ZM11.0722 9.29167C11.0203 9.29609 10.9682 9.29609 10.9163 9.29167C10.6732 9.29167 10.4401 9.19509 10.2682 9.02318C10.0963 8.85127 9.99967 8.61812 9.99967 8.375C9.99967 8.13189 10.0963 7.89873 10.2682 7.72682C10.4401 7.55491 10.6732 7.45833 10.9163 7.45833C10.9682 7.45391 11.0203 7.45391 11.0722 7.45833C10.8647 8.02666 10.8647 8.65 11.0722 9.21833V9.29167ZM13.6663 9.29167C13.485 9.29167 13.3078 9.23791 13.1571 9.13718C13.0063 9.03646 12.8888 8.89329 12.8195 8.72579C12.7501 8.55829 12.7319 8.37398 12.7673 8.19617C12.8027 8.01835 12.89 7.85502 13.0182 7.72682C13.1464 7.59862 13.3097 7.51132 13.4875 7.47595C13.6653 7.44058 13.8496 7.45873 14.0171 7.52811C14.1846 7.59749 14.3278 7.71498 14.4285 7.86573C14.5292 8.01647 14.583 8.1937 14.583 8.375C14.583 8.61812 14.4864 8.85127 14.3145 9.02318C14.1426 9.19509 13.9095 9.29167 13.6663 9.29167Z" fill="#A4A4A4"/>
</svg>
