<svg width="20" height="20" viewBox="0 0 20 20" fill="none" xmlns="http://www.w3.org/2000/svg">
<path fill-rule="evenodd" clip-rule="evenodd" d="M12.5837 13.733C9.71256 16.0325 5.50984 15.8515 2.84832 13.19C-0.00738415 10.3343 -0.00738415 5.70428 2.84832 2.84857C5.70403 -0.00714027 10.3341 -0.00713975 13.1898 2.84857C15.8513 5.51008 16.0323 9.71279 13.7327 12.5839L19.318 18.1692C19.6353 18.4865 19.6353 19.0009 19.318 19.3182C19.0007 19.6355 18.4863 19.6355 18.169 19.3182L12.5837 13.733ZM3.99737 12.041C1.77627 9.81985 1.77627 6.21872 3.99737 3.99762C6.21848 1.77651 9.8196 1.77651 12.0407 3.99762C14.2602 6.21709 14.2618 9.81456 12.0456 12.0361C12.044 12.0377 12.0423 12.0393 12.0407 12.0409C12.0391 12.0426 12.0374 12.0442 12.0358 12.0458C9.81433 14.2621 6.21685 14.2604 3.99737 12.041Z" fill="white"/>
</svg>
