<svg width="25" height="27" viewBox="0 0 25 27" fill="none" xmlns="http://www.w3.org/2000/svg">
<path d="M4.60071 17.5151C5.74834 17.5116 6.85256 17.0642 7.69332 16.2621L15.907 21.0815C15.6318 22.1858 15.7531 23.355 16.2488 24.3749C16.7444 25.3949 17.5812 26.1974 18.606 26.6356C19.6307 27.0738 20.7749 27.1183 21.829 26.761C22.8831 26.4038 23.7767 25.6686 24.3461 24.6901C24.9155 23.7116 25.1226 22.5553 24.9296 21.4327C24.7366 20.3102 24.1564 19.2966 23.2951 18.5775C22.4338 17.8584 21.3491 17.4819 20.2396 17.5169C19.1301 17.5519 18.0699 17.9961 17.2532 18.7682L9.03953 13.9487C9.12612 13.6119 9.17336 13.2629 9.18123 12.9139L17.2506 8.17801C18.0276 8.90393 19.0241 9.33337 20.0729 9.39428C21.1216 9.4552 22.1589 9.14389 23.0107 8.51258C23.8624 7.88127 24.4768 6.96837 24.7508 5.92703C25.0248 4.88569 24.9417 3.77927 24.5155 2.79339C24.0892 1.80751 23.3458 1.00215 22.4098 0.512417C21.4739 0.0226879 20.4024 -0.121614 19.3751 0.103721C18.3478 0.329056 17.4272 0.910318 16.7678 1.74999C16.1084 2.58966 15.7503 3.63666 15.7535 4.71533C15.7588 5.10337 15.8099 5.49006 15.907 5.86462L8.44908 10.2395C8.01659 9.55239 7.41747 8.99268 6.71058 8.61533C6.0037 8.23797 5.21337 8.05594 4.41725 8.08713C3.62113 8.11833 2.8466 8.36166 2.16977 8.79323C1.49294 9.2248 0.937094 9.82975 0.556838 10.5487C0.176582 11.2676 -0.0149998 12.0757 0.000916753 12.8936C0.0168333 13.7116 0.2397 14.5112 0.647621 15.2139C1.05554 15.9167 1.63448 16.4983 2.32756 16.9018C3.02064 17.3052 3.80401 17.5166 4.60071 17.5151Z" fill="#C9A95C"/>
</svg>
