<svg width="28" height="21" viewBox="0 0 28 21" fill="none" xmlns="http://www.w3.org/2000/svg">
<path d="M2.33351 11.9583L22.1002 11.9583L16.0502 18.3167C15.7673 18.6145 15.6312 18.9984 15.6718 19.384C15.7124 19.7697 15.9265 20.1254 16.2668 20.3729C16.6072 20.6204 17.046 20.7395 17.4867 20.704C17.9274 20.6684 18.3339 20.4811 18.6168 20.1833L26.9502 11.4333C27.0062 11.3637 27.0564 11.2906 27.1002 11.2146C27.1002 11.1417 27.1002 11.0979 27.2168 11.025C27.2924 10.8578 27.3319 10.6798 27.3335 10.5C27.3319 10.3202 27.2924 10.1422 27.2168 9.97499C27.2168 9.90207 27.2168 9.85832 27.1002 9.7854C27.0564 9.70936 27.0062 9.63625 26.9502 9.56665L18.6168 0.816653C18.4601 0.652032 18.2639 0.519643 18.0421 0.428905C17.8203 0.338164 17.5784 0.291303 17.3335 0.291652C16.9441 0.290986 16.5667 0.409657 16.2668 0.627067C16.0981 0.749494 15.9586 0.89985 15.8563 1.06952C15.7541 1.2392 15.6911 1.42485 15.6709 1.61586C15.6508 1.80687 15.674 1.99947 15.739 2.18264C15.8041 2.36582 15.9098 2.53595 16.0502 2.68332L22.1002 9.04165L2.33351 9.04165C1.89148 9.04165 1.46756 9.19529 1.15499 9.46879C0.842435 9.74228 0.666841 10.1132 0.66684 10.5C0.66684 10.8868 0.842435 11.2577 1.15499 11.5312C1.46755 11.8047 1.89148 11.9583 2.33351 11.9583Z" fill="#D2D2D2"/>
</svg>
