<svg width="28" height="21" viewBox="0 0 28 21" fill="none" xmlns="http://www.w3.org/2000/svg">
<path d="M25.6665 9.04168H5.89984L11.9498 2.68335C12.2327 2.38553 12.3688 2.00158 12.3282 1.61596C12.2876 1.23034 12.0735 0.874634 11.7332 0.627099C11.3928 0.379563 10.954 0.260473 10.5133 0.296027C10.0726 0.331581 9.66606 0.518866 9.38317 0.816682L1.04984 9.56668C0.993772 9.63628 0.943636 9.70939 0.899837 9.78543C0.899837 9.85835 0.899837 9.9021 0.783171 9.97502C0.707627 10.1422 0.668072 10.3202 0.666504 10.5C0.668072 10.6798 0.707627 10.8578 0.783171 11.025C0.783171 11.0979 0.78317 11.1417 0.899837 11.2146C0.943636 11.2906 0.993772 11.3638 1.04984 11.4333L9.38317 20.1833C9.53987 20.348 9.7361 20.4804 9.95791 20.5711C10.1797 20.6618 10.4216 20.7087 10.6665 20.7083C11.0559 20.709 11.4333 20.5903 11.7332 20.3729C11.9019 20.2505 12.0414 20.1001 12.1437 19.9305C12.2459 19.7608 12.3089 19.5751 12.3291 19.3841C12.3492 19.1931 12.3261 19.0005 12.261 18.8174C12.1959 18.6342 12.0902 18.464 11.9498 18.3167L5.89984 11.9583H25.6665C26.1085 11.9583 26.5324 11.8047 26.845 11.5312C27.1576 11.2577 27.3332 10.8868 27.3332 10.5C27.3332 10.1132 27.1576 9.74231 26.845 9.46882C26.5324 9.19533 26.1085 9.04168 25.6665 9.04168Z" fill="#D2D2D2"/>
</svg>
