<svg width="67" height="59" viewBox="0 0 67 59" fill="none" xmlns="http://www.w3.org/2000/svg">
<path fill-rule="evenodd" clip-rule="evenodd" d="M14.7376 35.388C14.8793 35.4358 15.0223 35.4697 15.1652 35.4905C15.3211 35.8566 15.5224 36.3304 15.7573 36.8844C16.3306 38.2365 17.103 40.0651 17.9003 41.9728C19.5263 45.8632 21.1665 49.8735 21.5287 51.0215C21.9771 52.4405 22.4511 53.4053 22.9686 54.0639C23.2362 54.4045 23.5456 54.7019 23.9077 54.9271C24.09 55.0404 24.2825 55.1335 24.4835 55.2027C24.4923 55.2058 24.5012 55.2088 24.51 55.2117C25.5461 55.6029 26.4906 55.4398 27.082 55.2407C27.3985 55.1341 27.6545 55.0053 27.8359 54.9011C27.9285 54.8479 28.0066 54.7982 28.069 54.7563L28.0837 54.7463L37.2335 49.0404L47.8022 57.1431C47.9583 57.2628 48.1283 57.363 48.3085 57.4416C49.5782 57.9957 50.8077 58.189 51.9643 58.031C53.1188 57.8732 54.0357 57.3881 54.718 56.8422C55.3863 56.3075 55.8393 55.7088 56.1214 55.2638C56.2655 55.0366 56.3737 54.8356 56.4499 54.6817C56.4883 54.6043 56.5191 54.5377 56.5429 54.4841L56.5734 54.4135L56.5849 54.3859L56.5898 54.374L56.5919 54.3686L56.594 54.3635C56.6495 54.2247 56.6921 54.081 56.7212 53.9343L66.3696 5.28968C66.4004 5.13411 66.416 4.97589 66.416 4.81728C66.416 3.39275 65.8792 2.03819 64.6172 1.21622C63.5385 0.513692 62.3368 0.483453 61.5774 0.541096C60.7582 0.603277 60.0015 0.805513 59.4938 0.967115C59.2296 1.05122 59.0081 1.13236 58.8483 1.19426C58.7681 1.22538 58.7023 1.25207 58.6532 1.27243L58.6164 1.28792L4.50626 22.5145L4.49925 22.5171C4.46476 22.5296 4.42049 22.5461 4.36788 22.5666C4.2631 22.6074 4.12271 22.6649 3.95873 22.7392C3.63892 22.8842 3.19027 23.1107 2.72987 23.426C1.99436 23.9296 0.302812 25.3091 0.587648 27.586C0.814882 29.4025 2.0593 30.5181 2.81749 31.0545C3.2338 31.3491 3.6293 31.5598 3.91734 31.6969C4.05097 31.7605 4.32841 31.8732 4.44879 31.9221L4.47917 31.9345L14.7376 35.388ZM60.5101 5.75952L60.5026 5.7628C60.4756 5.77451 60.4485 5.78574 60.4211 5.79646L6.24526 27.0489C6.21697 27.06 6.18847 27.0705 6.15979 27.0806L6.12963 27.092C6.09498 27.1055 6.03662 27.1292 5.96338 27.1623C5.92186 27.1812 5.87852 27.2017 5.83433 27.2237C5.89504 27.2579 5.95314 27.2877 6.00477 27.3122C6.05433 27.3358 6.09214 27.352 6.11284 27.3605L16.287 30.7857C16.4732 30.8484 16.6468 30.9314 16.8062 31.0316L50.4007 11.3656L50.4321 11.347C50.4566 11.3325 50.4887 11.3139 50.5273 11.2922C50.6037 11.2489 50.7088 11.1914 50.8337 11.1278C51.0669 11.0091 51.4399 10.833 51.8601 10.7031C52.1527 10.6127 53.0154 10.3579 53.9481 10.6571C54.5238 10.8417 55.1198 11.2387 55.5074 11.9111C55.7 12.2452 55.8027 12.5808 55.8523 12.888C55.9844 13.3719 55.9634 13.8498 55.8601 14.2623C55.6375 15.151 55.0132 15.8443 54.445 16.3745C53.9583 16.8291 47.6601 22.9021 41.4469 28.8971C38.3485 31.8868 35.2817 34.8469 32.9894 37.0596L31.4838 38.5131L50.494 53.0877C50.93 53.2438 51.1877 53.2357 51.307 53.2194C51.4491 53.2 51.5653 53.1454 51.6841 53.0503C51.817 52.944 51.9332 52.8006 52.02 52.6636L52.0235 52.658L61.3814 5.47835C61.2425 5.51174 61.1021 5.55148 60.9667 5.59456C60.8134 5.64336 60.687 5.68983 60.6032 5.72231C60.5617 5.73839 60.5318 5.75059 60.5156 5.75732L60.5101 5.75952ZM33.117 45.8844L29.3244 42.9767L28.4054 48.8226L33.117 45.8844ZM25.8451 37.2068L29.6167 33.5657C31.9091 31.3528 34.9762 28.3924 38.075 25.4025L41.2234 22.365L20.115 34.7217L20.2283 34.9887C20.8036 36.3456 21.5794 38.1823 22.381 40.1001C22.9803 41.5342 23.6071 43.0441 24.1779 44.4421L25.0942 38.6133C25.1826 38.0513 25.4571 37.5648 25.8451 37.2068Z" fill="#D2D2D2"/>
</svg>
