<svg width="231" height="33" viewBox="0 0 231 33" fill="none" xmlns="http://www.w3.org/2000/svg">
<path fill-rule="evenodd" clip-rule="evenodd" d="M0 10.3661C0 20.9037 15.2266 20.3335 15.2266 27.7253C15.2462 28.2542 15.1563 28.7813 14.9625 29.2739C14.7687 29.7665 14.4752 30.2138 14.1003 30.588C13.7254 30.9622 13.2772 31.2552 12.7837 31.4486C12.2902 31.6421 11.7621 31.7318 11.2322 31.7123C5.64009 31.7123 2.90393 26.5651 2.90393 24.2088C2.85625 23.2279 2.73205 22.2521 2.53245 21.2904H0.79888C0.994605 23.2001 1.19832 25.1179 1.19832 27.1113C1.19832 28.9732 1.01058 30.895 0.822846 32.7569H2.54843L2.67225 30.9548C4.3499 31.5129 7.02215 33.0041 11.9313 33.0041C21.0065 33.0041 25.1128 28.9732 25.1128 22.7058C25.1128 11.1077 9.33091 12.5949 9.33091 5.215C9.33091 3.22153 10.1977 1.30779 13.8046 1.30779C19.8921 1.30779 21.5098 7.68691 21.5098 9.68039C21.4934 9.78834 21.516 9.89861 21.5737 9.99137C21.6337 10.6731 21.6976 11.3549 21.8214 12.0367H23.6229C23.3478 10.124 23.1957 8.19567 23.1675 6.26357C23.1675 4.84023 23.2913 3.47271 23.4152 2.04538V1.92178L23.6029 0.558244H21.8134L21.7495 1.24001C18.9967 0.375476 16.1229 -0.0431458 13.2374 7.05197e-05C3.91451 7.05197e-05 0 4.03088 0 10.3661ZM231 15.3897V14.7C230.253 5.95658 225.839 0.311053 217.016 7.05197e-05H216.217C206.51 0.434648 200.487 6.69815 200.487 16.4981C200.487 26.4854 206.826 32.7529 217.016 32.7529C227.457 32.7529 230.065 23.6945 230.065 23.6945L229.195 23.1244C229.195 23.1244 226.027 30.3806 218.757 30.3806C213.473 30.3806 212.602 27.6536 212.602 16.4861V15.3698L231 15.3897ZM216.704 1.43537C219.316 1.62276 220.123 3.97905 220.247 13.9026H212.602C212.79 3.98702 213.908 1.61479 216.704 1.4274V1.43537ZM195.534 30.5042V10.8446C195.534 3.7199 192.115 -0.0637207 186.211 -0.0637207C180.742 -0.0637207 177.024 3.16571 175.027 5.76919V0.247262H173.908C170.617 1.44335 167.261 1.67459 163.966 1.67459C162.848 1.67459 161.669 1.67459 160.551 1.61479V3.20957C161.393 3.33347 162.244 3.3961 163.095 3.39695V30.5601L160.611 30.7435V32.3701C166.276 31.8718 171.974 31.8718 177.639 32.3701V30.7435C176.768 30.6837 175.897 30.5601 175.031 30.5601V6.99717C176.021 5.95658 177.827 4.40565 180.311 4.40565C182.612 4.40565 183.543 5.89279 183.543 7.80652V30.5601L181.182 30.7435V32.3781C186.847 31.8837 192.545 31.8837 198.21 32.3781V30.7435C197.339 30.6837 196.405 30.5601 195.538 30.4963L195.534 30.5042ZM142.093 32.725C152.079 32.725 158.438 26.4655 158.438 16.4861C158.438 6.44697 152.099 7.05197e-05 142.093 7.05197e-05C132.486 7.05197e-05 126.223 5.86886 125.664 15.1266H115.007V9.31359H111.843V15.1266H101.234V10.8446C101.234 3.7199 97.8148 -0.0637207 91.9111 -0.0637207C86.4428 -0.0637207 82.724 3.16571 80.7268 5.76919V0.247262H79.6083C76.313 1.44335 72.9577 1.67459 69.6623 1.67459C68.5439 1.67459 67.3655 1.67459 66.2471 1.61479V3.20957C67.0909 3.33355 67.9426 3.39618 68.7955 3.39695V30.5601L66.307 30.7435V32.3701C71.9721 31.8718 77.6701 31.8718 83.3351 32.3701V30.7435C82.4643 30.6837 81.5936 30.5601 80.7268 30.5601V6.99717C81.7214 5.95658 83.5229 4.40565 86.0074 4.40565C88.3081 4.40565 89.2388 5.89279 89.2388 7.80652V30.5601L86.8781 30.7435V32.3781C92.5434 31.8837 98.241 31.8837 103.906 32.3781V30.7435C103.035 30.6837 102.101 30.5601 101.234 30.4963V18.2763H111.843V24.0892H114.999V18.2763H125.688C126.415 27.207 132.634 32.725 142.085 32.725H142.093ZM147.054 16.2788C147.354 16.6859 147.621 17.1166 147.853 17.5666C148.116 18.4796 147.413 19.1016 147.006 19.8431C146.645 20.4699 146.427 21.1681 146.367 21.8884C146.33 22.6529 146.421 23.4181 146.634 24.153C146.686 24.3444 146.734 24.5517 146.782 24.7391L146.93 25.2933C146.99 25.4926 147.038 25.6641 147.098 25.8555C147.237 26.2451 147.345 26.645 147.421 27.0515C147.421 27.2987 147.15 27.3346 146.986 27.3585C146.822 27.3825 146.894 27.3585 146.798 27.4383C146.702 27.5085 146.602 27.5737 146.499 27.6336C145.765 28.1158 144.873 28.2945 144.01 28.132L143.754 28.0842L143.031 27.9087L142.764 27.817C142.731 26.2255 142.618 24.6367 142.424 23.0566C142.34 22.2273 142.264 21.5216 142.248 21.0631C142.225 20.3854 142.109 19.5401 141.953 18.4158C141.797 17.2915 141.601 15.8323 141.422 13.9903C141.098 10.705 141.733 6.41508 141.881 5.40638L141.909 5.19906C141.907 5.17386 141.907 5.1485 141.909 5.1233C142.021 5.11217 142.133 5.11217 142.244 5.1233C142.975 5.15121 143.411 5.87285 143.535 6.46691C143.598 6.87583 143.609 7.29121 143.567 7.70286C143.567 7.94208 143.531 8.08162 143.519 8.32084C143.479 9.49699 143.455 9.94751 143.946 11.016C144.244 11.6734 144.579 12.3136 144.949 12.9337L146.063 14.7518C146.123 14.8435 146.171 14.9113 146.231 15.007C146.291 15.1026 146.335 15.1824 146.391 15.2661L147.054 16.2788ZM141.861 21.0831C141.861 21.5456 141.953 22.2592 142.041 23.0765C142.263 24.834 142.371 26.6039 142.364 28.3752C142.273 28.38 142.181 28.38 142.089 28.3752H141.689C141.521 28.3752 141.462 28.3752 141.318 28.3752C141.174 28.3752 141.034 28.3752 140.894 28.3752C140.367 28.3752 139.832 28.3752 139.297 28.3752L139.58 20.5209L140.803 20.493C140.886 18.1646 140.315 16.4742 140.044 14.397C140.02 14.2056 139.988 14.0182 139.976 13.8348C139.964 13.6514 139.976 13.4361 139.936 13.2527C139.904 12.9537 139.936 12.1962 139.908 12.0327C139.856 11.5862 140.036 9.32954 140.06 8.84313L140.227 7.30417C140.295 6.94534 140.355 6.25958 140.435 5.80109L140.671 4.32591C140.898 4.32591 141.637 4.55716 141.805 4.56513V4.59703C141.647 4.75284 141.543 4.95564 141.51 5.17513L141.482 5.37049C141.334 6.37122 140.683 10.713 141.022 14.0501C141.206 15.912 141.402 17.3473 141.557 18.4876C141.713 19.6278 141.825 20.4372 141.849 21.095L141.861 21.0831ZM29.4547 23.6945C29.4547 29.7108 33.1215 32.7529 39.5845 32.7529C44.3778 32.7529 46.5467 30.6438 47.4175 29.2165C48.6598 31.6365 51.2082 32.7529 55.9296 32.7529C63.0156 32.7529 64.134 27.0436 64.134 27.0436H63.3352C63.1787 27.5805 62.8519 28.0522 62.4039 28.388C61.9559 28.7237 61.4109 28.9053 60.8507 28.9055C59.3607 28.9055 58.5499 27.8489 58.5499 25.8674V11.3509C58.5499 4.9718 54.6354 7.05197e-05 44.0103 7.05197e-05C37.1 7.05197e-05 31.6915 2.85473 31.6915 7.5075C31.6915 10.1748 33.5569 12.4075 36.4169 12.4075C39.4007 12.4075 41.6376 10.1748 41.6376 7.5075C41.6376 5.91272 40.3953 4.28206 38.466 3.12185C38.466 3.12185 39.4007 1.12838 42.8599 1.12838C46.2152 1.12838 46.5867 3.12185 46.5867 5.15919V16.1273C44.7147 15.2194 42.6603 14.749 40.5791 14.7518C33.7886 14.7518 29.4547 18.1008 29.4547 23.6826V23.6945ZM40.7029 23.2599C40.7029 19.6717 42.5084 17.0562 46.2352 17.0562H46.6066V24.5637C46.595 25.8826 46.763 27.1971 47.1059 28.4709C46.834 28.7334 46.5124 28.9392 46.1599 29.0761C45.8073 29.213 45.431 29.2783 45.0528 29.2683C42.3206 29.2683 40.7029 27.0356 40.7029 23.252V23.2599Z" fill="#DCBB45"/>
</svg>
