<svg width="2229" height="1091" viewBox="0 0 2229 1091" fill="none" xmlns="http://www.w3.org/2000/svg">
<path d="M4.44298 682.146C-37.9776 1076.12 322.104 1015.79 506.091 994.068C683.666 977.693 874.559 1077.93 1089.62 1061.64C1304.68 1045.35 1433.43 825.739 1508.9 682.146C1584.36 538.554 1541.94 220.6 1344.64 98.727C1147.33 -23.1455 876.532 63.1306 572.682 204.31C268.832 345.489 46.8636 288.172 4.44298 682.146Z" stroke="#DCBB45" stroke-width="0.964978"/>
<path d="M266.493 640.7C238.852 895.596 473.486 856.561 593.374 842.509C709.084 831.915 833.472 896.767 973.61 886.228C1113.75 875.688 1197.64 733.603 1246.81 640.7C1295.99 547.798 1268.35 342.086 1139.78 263.237C1011.22 184.387 834.758 240.206 636.765 331.547C438.773 422.888 294.135 385.805 266.493 640.7Z" stroke="#DCBB45" stroke-width="0.964978"/>
<path d="M23.1628 678.071C-18.2239 1061.65 333.082 1002.91 512.585 981.763C685.831 965.821 872.072 1063.41 1081.89 1047.55C1291.71 1031.69 1417.32 817.875 1490.95 678.071C1564.58 538.266 1523.19 228.7 1330.69 110.043C1138.2 -8.6142 873.997 75.3858 577.552 212.84C281.108 350.295 64.5495 294.491 23.1628 678.071Z" stroke="#DCBB45" stroke-width="0.964978"/>
<path d="M278.584 638.411C251.885 886.377 478.517 848.404 594.317 834.734C706.081 824.428 826.227 887.517 961.585 877.264C1096.94 867.011 1177.97 728.788 1225.47 638.411C1272.97 548.034 1246.27 347.915 1122.09 271.209C997.909 194.503 827.469 248.805 636.228 337.662C444.988 426.52 305.283 390.445 278.584 638.411Z" stroke="#DCBB45" stroke-width="0.964978"/>
<path d="M50.6917 674.299C10.8254 1044.52 349.225 987.821 522.133 967.411C689.016 952.024 868.414 1046.22 1070.53 1030.91C1272.64 1015.6 1393.63 809.233 1464.55 674.299C1535.48 539.365 1495.61 240.584 1310.19 126.06C1124.76 11.537 870.268 92.6105 584.714 225.276C299.161 357.942 90.558 304.082 50.6917 674.299Z" stroke="#DCBB45" stroke-width="0.964978"/>
<path d="M296.203 636.753C270.477 875.81 488.849 839.201 600.428 826.021C708.119 816.086 823.886 876.908 954.311 867.024C1084.74 857.139 1162.81 723.882 1208.58 636.753C1254.35 549.623 1228.62 356.693 1108.97 282.743C989.311 208.793 825.083 261.144 640.812 346.809C456.542 432.474 321.929 397.696 296.203 636.753Z" stroke="#DCBB45" stroke-width="0.964978"/>
<path d="M74.9171 670.048C36.3888 1027.4 363.431 972.672 530.536 952.971C691.817 938.119 865.195 1029.04 1060.52 1014.26C1255.85 999.487 1372.78 800.291 1441.33 670.048C1509.87 539.804 1471.34 251.408 1292.14 140.866C1112.94 30.3229 866.987 108.578 591.017 236.633C315.047 364.687 113.445 312.699 74.9171 670.048Z" stroke="#DCBB45" stroke-width="0.964978"/>
<path d="M310.516 633.331C285.61 863.974 497.013 828.653 605.032 815.938C709.285 806.352 821.358 865.034 947.62 855.497C1073.88 845.961 1149.47 717.394 1193.77 633.331C1238.08 549.268 1213.18 363.129 1097.34 291.781C981.503 220.434 822.516 270.942 644.127 353.592C465.737 436.242 335.421 402.688 310.516 633.331Z" stroke="#DCBB45" stroke-width="0.964978"/>
<path d="M100.244 665.469C63.1141 1008.96 378.283 956.358 539.321 937.421C694.746 923.145 861.829 1010.54 1050.07 996.335C1238.3 982.133 1350.99 790.662 1417.04 665.469C1483.1 540.277 1445.97 263.065 1273.28 156.81C1100.58 50.5541 863.556 125.775 597.605 248.863C331.655 371.951 137.373 321.98 100.244 665.469Z" stroke="#DCBB45" stroke-width="0.964978"/>
<path d="M327.033 630.388C303.04 852.122 506.699 818.166 610.761 805.942C711.196 796.726 819.163 853.141 940.801 843.973C1062.44 834.805 1135.25 711.204 1177.94 630.388C1220.62 549.572 1196.63 370.623 1085.04 302.031C973.442 233.44 820.279 281.997 648.424 361.455C476.569 440.912 351.026 408.654 327.033 630.388Z" stroke="#DCBB45" stroke-width="0.964978"/>
<path d="M124.469 661.218C88.6774 991.84 392.489 941.209 547.724 922.981C697.548 909.24 858.61 993.359 1040.06 979.689C1221.52 966.018 1330.14 781.721 1393.82 661.218C1457.49 540.716 1421.7 273.89 1255.23 171.615C1088.76 69.34 860.275 141.743 603.908 260.22C347.541 378.696 160.26 330.597 124.469 661.218Z" stroke="#DCBB45" stroke-width="0.964978"/>
<path d="M343.553 628.252C320.442 841.572 516.615 808.905 616.852 797.144C713.595 788.278 817.594 842.552 934.761 833.732C1051.93 824.912 1122.07 706.001 1163.18 628.252C1204.3 550.503 1181.19 378.344 1073.69 312.355C966.203 246.367 818.669 293.082 653.131 369.524C487.592 445.966 366.663 414.932 343.553 628.252Z" stroke="#DCBB45" stroke-width="0.964978"/>
<path d="M145.391 657.143C110.755 977.37 404.758 928.331 554.981 910.677C699.969 897.367 855.83 978.842 1031.43 965.601C1207.02 952.36 1312.14 773.857 1373.76 657.143C1435.38 540.428 1400.74 281.991 1239.64 182.931C1078.55 83.8714 857.441 153.998 609.351 268.75C361.262 383.502 180.027 336.915 145.391 657.143Z" stroke="#DCBB45" stroke-width="0.964978"/>
<path d="M356.764 625.484C334.413 832.37 524.134 800.688 621.073 789.282C714.634 780.683 815.212 833.321 928.525 824.766C1041.84 816.212 1109.67 700.888 1149.43 625.484C1189.2 550.08 1166.84 383.114 1062.89 319.115C958.932 255.117 816.252 300.423 656.159 374.56C496.065 448.696 379.114 418.598 356.764 625.484Z" stroke="#DCBB45" stroke-width="0.964978"/>
<path d="M169.617 653.218C136.319 961.567 418.964 914.347 563.384 897.348C702.77 884.532 852.611 962.984 1021.42 950.235C1190.24 937.485 1291.29 765.603 1350.53 653.218C1409.77 540.833 1376.47 291.982 1221.6 196.597C1066.72 101.212 854.16 168.737 615.654 279.233C377.148 389.729 202.915 344.869 169.617 653.218Z" stroke="#DCBB45" stroke-width="0.964978"/>
<path d="M371.077 622.388C349.547 821.85 532.298 791.304 625.677 780.308C715.801 772.018 812.684 822.766 921.834 814.519C1030.98 806.272 1096.32 695.086 1134.63 622.388C1172.93 549.69 1151.4 388.715 1051.26 327.014C951.124 265.312 813.685 308.992 659.473 380.468C505.261 451.944 392.606 422.926 371.077 622.388Z" stroke="#DCBB45" stroke-width="0.964978"/>
<path d="M194.943 648.967C163.044 944.448 433.815 899.198 572.168 882.908C705.699 870.627 849.245 945.805 1010.97 933.588C1172.69 921.37 1269.5 756.662 1326.25 648.967C1383 541.272 1351.1 302.807 1202.73 211.402C1054.36 119.998 850.729 184.705 622.242 290.589C393.756 396.474 226.842 353.487 194.943 648.967Z" stroke="#DCBB45" stroke-width="0.964978"/>
<path d="M387.594 619.772C366.976 811.315 541.984 781.982 631.406 771.422C717.711 763.461 810.489 812.195 915.014 804.275C1019.54 796.355 1082.11 689.584 1118.79 619.772C1155.47 549.96 1134.85 395.377 1038.96 336.125C943.063 276.873 811.448 318.818 663.77 387.457C516.092 456.095 408.211 428.229 387.594 619.772Z" stroke="#DCBB45" stroke-width="0.964978"/>
<path d="M220.27 644.716C189.77 927.328 448.667 884.049 580.953 868.468C708.629 856.722 845.88 928.626 1000.51 916.941C1155.14 905.256 1247.7 747.72 1301.97 644.716C1356.23 541.711 1325.73 313.631 1183.87 226.208C1042 138.784 847.299 200.673 628.832 301.946C410.365 403.219 250.77 362.104 220.27 644.716Z" stroke="#DCBB45" stroke-width="0.964978"/>
<path d="M405.215 617.307C385.54 799.446 552.546 771.554 637.879 761.512C720.238 753.942 808.774 800.283 908.52 792.752C1008.27 785.221 1067.98 683.692 1102.98 617.307C1137.98 550.923 1118.31 403.929 1026.8 347.586C935.286 291.243 809.689 331.129 668.763 396.398C527.838 461.667 424.889 435.169 405.215 617.307Z" stroke="#DCBB45" stroke-width="0.964978"/>
<path d="M250.001 639.812C221.143 907.576 466.102 866.57 591.266 851.809C712.067 840.68 841.929 908.806 988.234 897.735C1134.54 886.663 1222.12 737.404 1273.46 639.812C1324.8 542.219 1295.94 326.122 1161.72 243.292C1027.49 160.461 843.272 219.099 636.566 315.051C429.861 411.003 278.859 372.048 250.001 639.812Z" stroke="#DCBB45" stroke-width="0.964978"/>
<path d="M423.934 614.365C405.294 787.594 563.523 761.066 644.372 751.516C722.403 744.316 806.286 788.39 900.791 781.228C995.295 774.065 1051.87 677.502 1085.03 614.365C1118.19 551.227 1099.55 411.423 1012.85 357.836C926.151 304.249 807.153 342.184 673.634 404.261C540.114 466.337 442.575 441.135 423.934 614.365Z" stroke="#DCBB45" stroke-width="0.964978"/>
<g filter="url(#filter0_b_831_989)">
<circle cx="2155.5" cy="264.5" r="73.5" fill="#9F6233" fill-opacity="0.2"/>
<circle cx="2155.5" cy="264.5" r="73" stroke="url(#paint0_linear_831_989)"/>
</g>
<g filter="url(#filter1_b_831_989)">
<circle cx="1128" cy="963" r="128" fill="#9F6233" fill-opacity="0.2"/>
<circle cx="1128" cy="963" r="127.5" stroke="url(#paint1_linear_831_989)"/>
</g>
<g filter="url(#filter2_b_831_989)">
<circle cx="476" cy="44" r="44" fill="#9F6233" fill-opacity="0.2"/>
<circle cx="476" cy="44" r="43.5" stroke="url(#paint2_linear_831_989)"/>
</g>
<defs>
<filter id="filter0_b_831_989" x="2067" y="176" width="177" height="177" filterUnits="userSpaceOnUse" color-interpolation-filters="sRGB">
<feFlood flood-opacity="0" result="BackgroundImageFix"/>
<feGaussianBlur in="BackgroundImage" stdDeviation="7.5"/>
<feComposite in2="SourceAlpha" operator="in" result="effect1_backgroundBlur_831_989"/>
<feBlend mode="normal" in="SourceGraphic" in2="effect1_backgroundBlur_831_989" result="shape"/>
</filter>
<filter id="filter1_b_831_989" x="985" y="820" width="286" height="286" filterUnits="userSpaceOnUse" color-interpolation-filters="sRGB">
<feFlood flood-opacity="0" result="BackgroundImageFix"/>
<feGaussianBlur in="BackgroundImage" stdDeviation="7.5"/>
<feComposite in2="SourceAlpha" operator="in" result="effect1_backgroundBlur_831_989"/>
<feBlend mode="normal" in="SourceGraphic" in2="effect1_backgroundBlur_831_989" result="shape"/>
</filter>
<filter id="filter2_b_831_989" x="417" y="-15" width="118" height="118" filterUnits="userSpaceOnUse" color-interpolation-filters="sRGB">
<feFlood flood-opacity="0" result="BackgroundImageFix"/>
<feGaussianBlur in="BackgroundImage" stdDeviation="7.5"/>
<feComposite in2="SourceAlpha" operator="in" result="effect1_backgroundBlur_831_989"/>
<feBlend mode="normal" in="SourceGraphic" in2="effect1_backgroundBlur_831_989" result="shape"/>
</filter>
<linearGradient id="paint0_linear_831_989" x1="2199.73" y1="169.969" x2="2122.98" y2="334.748" gradientUnits="userSpaceOnUse">
<stop offset="0.0162482" stop-color="white"/>
<stop offset="1" stop-color="white" stop-opacity="0.31"/>
</linearGradient>
<linearGradient id="paint1_linear_831_989" x1="1205.03" y1="798.375" x2="1071.36" y2="1085.34" gradientUnits="userSpaceOnUse">
<stop offset="0.0162482" stop-color="white"/>
<stop offset="1" stop-color="white" stop-opacity="0.31"/>
</linearGradient>
<linearGradient id="paint2_linear_831_989" x1="502.478" y1="-12.59" x2="456.531" y2="86.0531" gradientUnits="userSpaceOnUse">
<stop offset="0.0162482" stop-color="white"/>
<stop offset="1" stop-color="white" stop-opacity="0.31"/>
</linearGradient>
</defs>
</svg>
